<svg width="24" height="25" viewBox="0 0 24 25" fill="none" xmlns="http://www.w3.org/2000/svg">
    <path d="M15.5 11.6c.828 0 1.5-.674 1.5-1.506s-.672-1.507-1.5-1.507-1.5.675-1.5 1.507c0 .832.672 1.507 1.5 1.507zM8.5 11.6c.828 0 1.5-.674 1.5-1.506s-.672-1.507-1.5-1.507S7 9.262 7 10.094c0 .832.672 1.507 1.5 1.507zM12 18.632c2.28 0 4.22-1.668 5-4.018H7c.78 2.35 2.72 4.018 5 4.018z" fill="#1877F2"/>
    <path d="M11.99 2.56C6.47 2.56 2 7.06 2 12.606S6.47 22.65 11.99 22.65c5.53 0 10.01-4.5 10.01-10.044 0-5.544-4.48-10.044-10.01-10.044zM12 20.64c-4.42 0-8-3.595-8-8.035 0-4.44 3.58-8.035 8-8.035s8 3.596 8 8.035c0 4.44-3.58 8.036-8 8.036z" fill="#1877F2"/>
</svg>
