<svg width="21" height="20" viewBox="0 0 21 20" fill="none" xmlns="http://www.w3.org/2000/svg">
<path d="M10.8662 1.60159C7.88767 1.59378 5.26658 3.1348 3.76853 5.46292C3.70212 5.56644 3.77634 5.70315 3.89939 5.70315H5.27244C5.36619 5.70315 5.45408 5.66214 5.51267 5.58987C5.64939 5.42386 5.79587 5.2637 5.95017 5.11136C6.58689 4.47659 7.32712 3.97659 8.15134 3.62894C9.00291 3.26956 9.90915 3.08597 10.8447 3.08597C11.7802 3.08597 12.6865 3.26761 13.5381 3.62894C14.3623 3.97659 15.1025 4.47659 15.7392 5.11136C16.376 5.74612 16.874 6.48636 17.2236 7.30862C17.5849 8.16019 17.7666 9.06448 17.7666 10C17.7666 10.9356 17.583 11.8399 17.2236 12.6914C16.876 13.5137 16.376 14.2539 15.7392 14.8887C15.1025 15.5235 14.3623 16.0235 13.5381 16.3711C12.6858 16.7311 11.7698 16.9157 10.8447 16.9141C9.90915 16.9141 9.00291 16.7305 8.15134 16.3711C7.32874 16.0238 6.58124 15.5204 5.95017 14.8887C5.79587 14.7344 5.65134 14.5742 5.51267 14.4102C5.45408 14.3379 5.36423 14.2969 5.27244 14.2969H3.89939C3.77634 14.2969 3.70017 14.4336 3.76853 14.5371C5.26462 16.8594 7.874 18.3985 10.8447 18.3985C15.458 18.3985 19.2041 14.6856 19.251 10.086C19.2978 5.41214 15.5459 1.61331 10.8662 1.60159ZM8.39197 12.1875V10.7032H2.25916C2.17322 10.7032 2.10291 10.6328 2.10291 10.5469V9.45315C2.10291 9.36722 2.17322 9.2969 2.25916 9.2969H8.39197V7.81253C8.39197 7.68167 8.54431 7.60745 8.64587 7.68948L11.4174 9.87698C11.436 9.8916 11.4511 9.91027 11.4615 9.93159C11.4719 9.95291 11.4773 9.97632 11.4773 10C11.4773 10.0237 11.4719 10.0471 11.4615 10.0685C11.4511 10.0898 11.436 10.1085 11.4174 10.1231L8.64587 12.3106C8.54431 12.3907 8.39197 12.3184 8.39197 12.1875Z" fill="#1877F2"/>
</svg>
